<svg xmlns="http://www.w3.org/2000/svg" xml:space="preserve" viewBox="0 0 24 24"><path d="M20.5 22h-17c-1.103 0-2-.897-2-2V10c0-1.103.897-2 2-2h17c1.103 0 2 .897 2 2v10c0 1.103-.897 2-2 2zm-17-12h-.001L3.5 20h17V10h-17zM20 7H4a1 1 0 0 1 0-2h16a1 1 0 1 1 0 2zM16.5 4h-9a1 1 0 0 1 0-2h9a1 1 0 1 1 0 2z"/><path d="M13 16a1 1 0 0 1-1-1v-3a1 1 0 0 1 2 0v3a1 1 0 0 1-1 1z"/><path d="M11.56 19h-1.12C9.095 19 8 17.935 8 16.625v-.25C8 15.065 9.095 14 10.44 14H13a1 1 0 0 1 1 1v1.625C14 17.935 12.905 19 11.56 19zm-1.12-3c-.243 0-.44.168-.44.375v.25c0 .207.197.375.44.375h1.12c.243 0 .44-.168.44-.375V16h-1.56zM15.501 13.5a.948.948 0 0 1-.197-.02l-2.5-.5a.999.999 0 0 1-.784-1.177.998.998 0 0 1 1.177-.784l2.5.5a1 1 0 0 1-.196 1.981z"/></svg>