<svg xmlns="http://www.w3.org/2000/svg" xml:space="preserve" viewBox="0 0 24 24"><path d="M21.102 22.5H2.897c-.77 0-1.396-.621-1.396-1.385v-.462c-.012-.205-.011-1.125.586-2.123a4.754 4.754 0 0 1 1.564-1.569c.76-.479 1.702-.816 2.798-1.002.064-.009.753-.102 1.439-.278.343-.088.571-.166.718-.225a6.205 6.205 0 0 0-.02-.259c-.099-1.088-.684-1.731-1.249-2.354a7.952 7.952 0 0 1-.589-.702 4.863 4.863 0 0 1-.849-2.38c-.002-.521.154-.884.33-1.138-.121-.907-.119-2.023.011-2.827.088-1.239.96-2.155 1.28-2.451a1.703 1.703 0 0 1 .025-.48c.122-.614.586-1.081 1.242-1.25.252-.066.494-.078.639-.085a12.747 12.747 0 0 1 1.638-.006c3.931.292 5.426 1.712 5.686 1.994.423.489.714 1.053.891 1.701.057.208.093.384.113.551.14.781.116 1.608.086 2.158-.011.21-.031.427-.061.666.084.123.169.279.23.468.062.198.092.399.092.621a4.822 4.822 0 0 1-.851 2.458c-.16.225-.366.455-.586.697-.57.63-1.154 1.273-1.253 2.36-.01.102-.016.187-.02.259.147.06.377.139.722.227.663.17 1.314.26 1.387.27 1.16.207 2.11.553 2.867 1.032a4.732 4.732 0 0 1 1.561 1.568c.592.991.584 1.909.567 2.167l.002.396c0 .762-.626 1.383-1.395 1.383zm-17.6-1.388v.003-.003zm0-.612h16.995a2.013 2.013 0 0 0-.287-.924c-.206-.346-.514-.649-.913-.901-.538-.342-1.246-.593-2.106-.747a14.916 14.916 0 0 1-1.572-.308c-1.287-.329-1.944-.727-2.132-1.289-.052-.093-.047-.107-.066-.211-.047-.238-.047-.6-.001-1.104.159-1.752 1.121-2.813 1.757-3.515.171-.188.327-.355.445-.522.362-.509.454-1.1.476-1.287l-.037-.039a5.962 5.962 0 0 1-.077-.086c-.116-.11-.307-.421-.231-.916.048-.316.077-.582.092-.834.024-.45.044-1.122-.066-1.749a2.347 2.347 0 0 0-.066-.323 2.234 2.234 0 0 0-.453-.897c-.003 0-1.14-1.092-4.342-1.331-.43-.032-.868-.016-1.317.006.011.155.004.312-.03.427a1.043 1.043 0 0 1-.119.258c-.16.248-.365.432-.563.595-.161.139-.63.65-.654 1.154a1.27 1.27 0 0 1-.014.124c-.12.691-.105 1.803.033 2.53.023.116.087.441-.084.791a1.009 1.009 0 0 1-.231.304l-.034.029c.022.169.118.746.473 1.244.119.167.276.336.441.517.639.705 1.602 1.766 1.761 3.519.045.504.045.865-.001 1.104a1.017 1.017 0 0 1-.055.186c-.108.531-.776.965-2.138 1.312-.786.202-1.552.307-1.637.318-.801.136-1.495.378-2.029.715a2.784 2.784 0 0 0-.916.906 2.114 2.114 0 0 0-.302.944zm5.113-4.801a1.076 1.076 0 0 0 0 .006v-.006zm8.839-7.483.042.044c-.014-.015-.027-.03-.042-.044zM7.69 3.964 7.707 4l-.017-.036z"/></svg>