<svg xmlns="http://www.w3.org/2000/svg" xml:space="preserve" viewBox="0 0 24 24"><path d="M2.001 21.5A.999.999 0 0 1 1 20.5v-16c0-1.103.897-2 2-2h6.5a1 1 0 0 1 .768.36l2.2 2.64h6.282c1.103 0 2 .897 2 2v3a1 1 0 0 1-1 1H5.281L2.97 20.742a1 1 0 0 1-.969.758zM3 4.5v7.877l.53-2.12A1 1 0 0 1 4.5 9.5h14.25v-2H12a1 1 0 0 1-.768-.36l-2.2-2.64H3z"/><path d="M20 21.5H2c-.306 0-.596-.141-.786-.381a1.007 1.007 0 0 1-.187-.854l2.406-10c.109-.448.511-.765.973-.765H22a.998.998 0 0 1 .98 1.196l-2 10a1 1 0 0 1-.98.804zm-16.731-2h15.912l1.6-8H5.194l-1.925 8z"/></svg>