<svg xmlns="http://www.w3.org/2000/svg" xml:space="preserve" viewBox="0 0 24 24"><path d="M9 11H4c-1.103 0-2-.897-2-2V4c0-1.103.897-2 2-2h5c1.103 0 2 .897 2 2v5c0 1.103-.897 2-2 2zM4 4v5h5V4H4zM9 22H4c-1.103 0-2-.897-2-2v-5c0-1.103.897-2 2-2h5c1.103 0 2 .897 2 2v5c0 1.103-.897 2-2 2zm-5-7v5h5v-5H4zM20 11h-5c-1.103 0-2-.897-2-2V4c0-1.103.897-2 2-2h5c1.103 0 2 .897 2 2v5c0 1.103-.897 2-2 2zm-5-7v5h5V4h-5zM20 22h-5c-1.103 0-2-.897-2-2v-5c0-1.103.897-2 2-2h5c1.103 0 2 .897 2 2v5c0 1.103-.897 2-2 2zm-5-7v5h5v-5h-5z"/></svg>