<svg xmlns="http://www.w3.org/2000/svg" xml:space="preserve" viewBox="0 0 24 24"><path d="M12 23c-2.938 0-5.7-1.145-7.778-3.222A10.925 10.925 0 0 1 1 12c0-2.938 1.144-5.7 3.222-7.778A10.927 10.927 0 0 1 12 1c2.938 0 5.701 1.144 7.778 3.222A10.931 10.931 0 0 1 23 12c0 2.938-1.145 5.701-3.222 7.778S14.938 23 12 23zm0-20a8.94 8.94 0 0 0-6.364 2.636A8.94 8.94 0 0 0 3 12a8.94 8.94 0 0 0 2.636 6.364A8.945 8.945 0 0 0 12 21a8.945 8.945 0 0 0 6.364-2.636A8.945 8.945 0 0 0 21 12a8.945 8.945 0 0 0-2.636-6.364A8.94 8.94 0 0 0 12 3z"/><path d="M12 15.312a1 1 0 0 1-1-1v-2a1 1 0 0 1 1-1c1.103 0 2-.897 2-2s-.897-2-2-2-2 .897-2 2a1 1 0 0 1-2 0c0-2.206 1.794-4 4-4s4 1.794 4 4a4.006 4.006 0 0 1-3 3.873v1.127a1 1 0 0 1-1 1z"/><circle cx="12" cy="17.562" r="1.25"/></svg>