<svg xmlns="http://www.w3.org/2000/svg" xml:space="preserve" viewBox="0 0 24 24"><path d="M15 19.5H8c-3.86 0-7-3.141-7-7 0-3.86 3.14-7 7-7h14a1 1 0 1 1 0 2H8c-2.757 0-5 2.243-5 5s2.243 5 5 5h7a5.974 5.974 0 0 0 4.709-2.281 5.939 5.939 0 0 0 1.215-2.763 1 1 0 0 1 1.974.32c-.07.43-.174.854-.311 1.262a7.922 7.922 0 0 1-1.312 2.423A7.955 7.955 0 0 1 15 19.5z"/><path d="M19 10.5a.999.999 0 0 1-.707-1.707L20.586 6.5l-2.293-2.293a.999.999 0 1 1 1.414-1.414l3 3a.999.999 0 0 1 0 1.414l-3 3A.997.997 0 0 1 19 10.5z"/></svg>