<svg xmlns="http://www.w3.org/2000/svg" xml:space="preserve" viewBox="0 0 24 24"><path d="M18.7 20h-1.95C15.233 20 14 18.767 14 17.25s1.233-2.75 2.75-2.75h3.75a1 1 0 0 1 1 1v1.7c0 1.544-1.256 2.8-2.8 2.8zm-1.95-3.5c-.413 0-.75.337-.75.75s.337.75.75.75h1.95a.8.8 0 0 0 .8-.8v-.7h-2.75zM6.2 22H4.75C3.233 22 2 20.767 2 19.25s1.233-2.75 2.75-2.75H8a1 1 0 0 1 1 1v1.7C9 20.744 7.744 22 6.2 22zm-1.45-3.5a.75.75 0 0 0 0 1.5H6.2a.8.8 0 0 0 .8-.8v-.7H4.75zM7.999 10.022a1 1 0 0 1-.229-1.973l12.5-2.959a1 1 0 0 1 .461 1.947L8.23 9.995a1.018 1.018 0 0 1-.231.027z"/><path d="M8 20a1 1 0 0 1-1-1V5a1 1 0 0 1 .767-.972l12.5-3a.995.995 0 0 1 .853.187c.239.189.38.479.38.785v14.847a1 1 0 1 1-2 0V3.269L9 5.789V19a1 1 0 0 1-1 1z"/></svg>