<svg xmlns="http://www.w3.org/2000/svg" xml:space="preserve" viewBox="0 0 24 24"><path d="M12 18.5a1 1 0 0 1-1-1V3a1 1 0 0 1 2 0v14.5a1 1 0 0 1-1 1z"/><path d="M9.48 22H7.52A3.524 3.524 0 0 1 4 18.48v-.46c0-1.94 1.579-3.52 3.52-3.52H12a1 1 0 0 1 1 1v2.98A3.524 3.524 0 0 1 9.48 22zm-1.96-5.5c-.838 0-1.52.682-1.52 1.52v.461C6 19.318 6.682 20 7.52 20h1.96c.838 0 1.52-.682 1.52-1.52V16.5H7.52zM18.441 9.561a.997.997 0 0 1-.23-.027l-6.442-1.527A1.001 1.001 0 0 1 11 7.033V3c0-.305.14-.594.378-.784.24-.19.553-.258.849-.19l6.441 1.507a1 1 0 0 1 .772.974v4.054a1.001 1.001 0 0 1-.999 1zM13 6.243l4.441 1.053V5.3L13 4.261v1.982z"/></svg>