<svg xmlns="http://www.w3.org/2000/svg" xml:space="preserve" viewBox="0 0 24 24"><path d="M4.5 7.5a1 1 0 0 1-1-1V2a1 1 0 0 1 2 0v4.5a1 1 0 0 1-1 1z"/><path d="M6 7.5H3a1 1 0 0 1 0-2h3a1 1 0 0 1 0 2zM6 14.5H3a1 1 0 1 1 0-2h3a1 1 0 0 1 0 2z"/><path d="M3.001 14.5a1.001 1.001 0 0 1-.499-1.868c1.227-.705 2.239-1.737 2.176-2.057-.053-.084-.162-.232-.253-.242-.186-.01-.582.236-.719.373a.999.999 0 1 1-1.414-1.414c.11-.11 1.099-1.07 2.331-.949.477.048 1.159.278 1.709 1.102.326.489.425 1.057.288 1.642-.389 1.646-2.67 3.022-3.124 3.281a.988.988 0 0 1-.495.132zM4.475 22.596c-.438 0-.872-.117-1.283-.353a3.22 3.22 0 0 1-1.023-.938 1.001 1.001 0 0 1 1.664-1.11c.306.431.683.508 1.113.223.189-.126.223-.206.223-.206-.002-.092-.193-.348-.309-.443a1.003 1.003 0 0 1 0-1.538c.158-.138.306-.37.307-.453-.002 0-.043-.077-.221-.196-.581-.389-.947-.027-1.113.223a1.001 1.001 0 0 1-1.664-1.11 3.197 3.197 0 0 1 1.023-.938c.91-.52 1.928-.463 2.863.161.87.58 1.083 1.274 1.109 1.754.027.518-.153.974-.37 1.328.217.354.397.81.37 1.328-.026.479-.239 1.174-1.109 1.754-.513.342-1.05.514-1.58.514z"/><path d="M5.5 20h-1a1 1 0 1 1 0-2h1a1 1 0 1 1 0 2zM3.001 4a1 1 0 0 1-.556-1.832l1.5-1a1 1 0 1 1 1.11 1.664l-1.5 1A.996.996 0 0 1 3.001 4zM21.5 13h-11a1 1 0 0 1 0-2h11a1 1 0 1 1 0 2zM21.5 20h-11a1 1 0 1 1 0-2h11a1 1 0 1 1 0 2zM21.5 6h-11a1 1 0 0 1 0-2h11a1 1 0 1 1 0 2z"/></svg>