<svg xmlns="http://www.w3.org/2000/svg" xml:space="preserve" viewBox="0 0 24 24"><path d="M14.5 18.5a1 1 0 0 1-1-1V3a1 1 0 1 1 2 0v14.5a1 1 0 0 1-1 1z"/><path d="M11.98 22h-1.96a3.524 3.524 0 0 1-3.52-3.52v-.46c0-1.94 1.579-3.52 3.52-3.52h4.48a1 1 0 0 1 1 1v2.98A3.524 3.524 0 0 1 11.98 22zm-1.96-5.5c-.838 0-1.52.682-1.52 1.52v.461c0 .838.682 1.52 1.52 1.52h1.96c.838 0 1.52-.682 1.52-1.52V16.5h-3.48zM20.941 9.561a.997.997 0 0 1-.23-.027L14.27 8.006a1 1 0 0 1-.77-.973V3a1.003 1.003 0 0 1 1.228-.974l6.441 1.507a1 1 0 0 1 .772.974v4.054a1.001 1.001 0 0 1-1 1zM15.5 6.243l4.441 1.053V5.3L15.5 4.261v1.982zM10 5H3a1 1 0 0 1 0-2h7a1 1 0 0 1 0 2zM10 9H3a1 1 0 0 1 0-2h7a1 1 0 0 1 0 2zM8 13H3a1 1 0 0 1 0-2h5a1 1 0 0 1 0 2z"/></svg>