<svg xmlns="http://www.w3.org/2000/svg" xml:space="preserve" viewBox="0 0 24 24"><path d="M12 22.5c-5.79 0-10.5-4.655-10.5-10.377a10.3 10.3 0 0 1 2.629-6.869 10.572 10.572 0 0 1 2.624-2.122 1 1 0 1 1 .993 1.737A8.518 8.518 0 0 0 5.62 6.587a8.299 8.299 0 0 0-2.12 5.536c0 4.62 3.813 8.377 8.5 8.377 4.687 0 8.5-3.758 8.5-8.377a8.299 8.299 0 0 0-2.12-5.536 8.572 8.572 0 0 0-2.126-1.718 1 1 0 1 1 .992-1.736 10.577 10.577 0 0 1 2.624 2.121 10.294 10.294 0 0 1 2.63 6.87C22.5 17.845 17.79 22.5 12 22.5z"/><path d="M12 13a1 1 0 0 1-1-1V2a1 1 0 0 1 2 0v10a1 1 0 0 1-1 1z"/></svg>