<svg xmlns="http://www.w3.org/2000/svg" xml:space="preserve" viewBox="0 0 24 24"><path d="M21 13a1 1 0 0 1-1-1V4a1 1 0 1 1 2 0v8a1 1 0 0 1-1 1zM3 21a1 1 0 0 1-1-1v-8a1 1 0 0 1 2 0v8a1 1 0 0 1-1 1z"/><path d="M12 22C6.486 22 2 17.514 2 12a1 1 0 0 1 2 0c0 4.411 3.589 8 8 8a7.96 7.96 0 0 0 5.556-2.244 1 1 0 0 1 1.389 1.439A9.95 9.95 0 0 1 12 22zm9-9a1 1 0 0 1-1-1c0-4.411-3.589-8-8-8-2.19 0-4.235.868-5.757 2.444a.996.996 0 0 1-1.413.025.998.998 0 0 1-.025-1.413A9.915 9.915 0 0 1 12 2c5.514 0 10 4.486 10 10a1 1 0 0 1-1 1z"/></svg>