<svg xmlns="http://www.w3.org/2000/svg" xml:space="preserve" viewBox="0 0 24 24"><path d="M14.858 22.586a.998.998 0 0 1-.952-.695C13.64 21.059 12.874 20.5 12 20.5s-1.64.559-1.905 1.391a.998.998 0 0 1-1.238.653 11.016 11.016 0 0 1-4.784-2.917 1 1 0 0 1-.044-1.338c.304-.36.471-.817.471-1.289 0-1.169-1.052-2.107-2.197-1.99a1.006 1.006 0 0 1-1.079-.794A11.011 11.011 0 0 1 1 12c0-1.126.169-2.237.504-3.3.135-.429.555-.701.99-.7a2.003 2.003 0 0 0 1.801-2.883 1 1 0 0 1 .216-1.174 11.024 11.024 0 0 1 4.548-2.546 1 1 0 0 1 1.158.509C10.561 2.581 11.244 3 12 3s1.439-.419 1.783-1.093c.216-.423.7-.634 1.157-.509a11.018 11.018 0 0 1 4.548 2.546.999.999 0 0 1 .216 1.175A2.002 2.002 0 0 0 21.5 8c.437 0 .865.283.996.7a11.038 11.038 0 0 1 .28 5.515.996.996 0 0 1-1.079.795 2.002 2.002 0 0 0-1.726 3.279 1 1 0 0 1-.044 1.338 11.015 11.015 0 0 1-4.783 2.917 1.016 1.016 0 0 1-.286.042zM6.082 18.78a8.996 8.996 0 0 0 2.545 1.566A3.986 3.986 0 0 1 12 18.5c1.396 0 2.653.713 3.374 1.847a9.036 9.036 0 0 0 2.544-1.566A4.022 4.022 0 0 1 17.5 17a4.006 4.006 0 0 1 3.44-3.961 9.023 9.023 0 0 0-.181-3.119C18.88 9.552 17.5 7.934 17.5 6c0-.35.044-.691.131-1.021a9.025 9.025 0 0 0-2.542-1.435A3.981 3.981 0 0 1 12 5a3.98 3.98 0 0 1-3.088-1.456 9.016 9.016 0 0 0-2.543 1.435 4.008 4.008 0 0 1-3.131 4.953 9.048 9.048 0 0 0-.179 3.107A4.006 4.006 0 0 1 6.5 17c0 .621-.146 1.23-.418 1.78z"/><path d="M12 16.5c-2.481 0-4.5-2.019-4.5-4.5S9.519 7.5 12 7.5s4.5 2.019 4.5 4.5-2.019 4.5-4.5 4.5zm0-7A2.503 2.503 0 0 0 9.5 12c0 1.379 1.122 2.5 2.5 2.5 1.379 0 2.5-1.121 2.5-2.5 0-1.378-1.121-2.5-2.5-2.5z"/></svg>