<svg xmlns="http://www.w3.org/2000/svg" xml:space="preserve" viewBox="0 0 24 24"><path d="M20 21.5a.999.999 0 0 1-.707-1.707l1.293-1.293-1.293-1.293a.999.999 0 1 1 1.414-1.414l2 2a.999.999 0 0 1 0 1.414l-2 2A.997.997 0 0 1 20 21.5zM20 8.5a.999.999 0 0 1-.707-1.707L20.586 5.5l-1.293-1.293a.999.999 0 1 1 1.414-1.414l2 2a.999.999 0 0 1 0 1.414l-2 2A.997.997 0 0 1 20 8.5z"/><path d="M22 19.5h-3.5c-4.136 0-7.5-3.364-7.5-7.5s3.364-7.5 7.5-7.5H22a1 1 0 1 1 0 2h-3.5A5.506 5.506 0 0 0 13 12c0 3.032 2.468 5.5 5.5 5.5H22a1 1 0 1 1 0 2z"/><path d="M5.5 19.5H2a1 1 0 1 1 0-2h3.5c3.033 0 5.5-2.468 5.5-5.5 0-3.033-2.467-5.5-5.5-5.5H2a1 1 0 0 1 0-2h3.5C9.636 4.5 13 7.864 13 12s-3.364 7.5-7.5 7.5z"/></svg>