<svg xmlns="http://www.w3.org/2000/svg" xml:space="preserve" viewBox="0 0 24 24"><path d="M20.094 18.5h-2.336a1 1 0 1 1 0-2h2.336a.407.407 0 0 0 .406-.406V3.906a.407.407 0 0 0-.406-.406H7.906a.406.406 0 0 0-.406.406v2.31a1 1 0 0 1-2 0v-2.31A2.41 2.41 0 0 1 7.906 1.5h12.188A2.409 2.409 0 0 1 22.5 3.906v12.188a2.408 2.408 0 0 1-2.406 2.406z"/><path d="M16.094 22.5H3.906A2.409 2.409 0 0 1 1.5 20.094V7.906A2.41 2.41 0 0 1 3.906 5.5h12.188A2.409 2.409 0 0 1 18.5 7.906v12.188a2.408 2.408 0 0 1-2.406 2.406zM3.906 7.5a.406.406 0 0 0-.406.406v12.188c0 .224.182.406.406.406h12.188a.407.407 0 0 0 .406-.406V7.906a.407.407 0 0 0-.406-.406H3.906z"/></svg>