<svg xmlns="http://www.w3.org/2000/svg" xml:space="preserve" viewBox="0 0 24 24"><path d="M12 22c-3.313 0-5.804-3.288-6.656-4.58H3c-1.103 0-2-.897-2-2V8.505c0-1.103.897-2 2-2h2.349C6.202 5.232 8.692 2 12 2a1 1 0 0 1 1 1v18a1 1 0 0 1-1 1zM3 8.505v6.915h2.899c.359 0 .691.193.869.505.556.973 2.255 3.276 4.231 3.911V4.155c-2.397.733-4.214 3.816-4.234 3.851a1.003 1.003 0 0 1-.866.499H3zM16 17.5a1 1 0 0 1-.666-1.746A5.018 5.018 0 0 0 17 12a5.018 5.018 0 0 0-1.666-3.754 1 1 0 0 1 1.332-1.492A7.01 7.01 0 0 1 19 12a7.01 7.01 0 0 1-2.334 5.246.997.997 0 0 1-.666.254z"/><path d="M17.119 21.593a1 1 0 0 1-.513-1.858A9.056 9.056 0 0 0 21 12a8.952 8.952 0 0 0-4.272-7.66 1 1 0 1 1 1.053-1.701A10.941 10.941 0 0 1 23 12a11.06 11.06 0 0 1-5.369 9.451.995.995 0 0 1-.512.142z"/></svg>