<svg xmlns="http://www.w3.org/2000/svg" xml:space="preserve" viewBox="0 0 24 24"><path d="M16.2 15.3a.999.999 0 0 1-.707-1.707l4.2-4.2a.999.999 0 1 1 1.414 1.414l-4.2 4.2a.997.997 0 0 1-.707.293z"/><path d="M20.3 15.3a.997.997 0 0 1-.707-.293l-4.2-4.2a.999.999 0 1 1 1.414-1.414l4.2 4.2A.999.999 0 0 1 20.3 15.3zM12 22c-3.314 0-5.806-3.302-6.656-4.6H3c-1.159 0-2-.841-2-2V8.5c0-1.159.841-2 2-2h2.35C6.203 5.228 8.693 2 12 2a1 1 0 0 1 1 1v18a1 1 0 0 1-1 1zM3 8.5v6.9h2.9c.359 0 .692.194.87.507.555.977 2.255 3.29 4.23 3.928V4.16C9.014 4.78 7.318 7.045 6.766 8a1 1 0 0 1-.866.5H3z"/></svg>